# xmcd CD database file
#
# Track frame offsets:
#	150
#	42410
#	85445
#	105325
#	152385
#	188097
#	237505
#	268660
#	316730
#
# Disc length: 4412 seconds
#
# Revision: 1
# Processed by: cddbd v1.4PL0 Copyright (c) Steve Scherf et al.
# Submitted via: CDex 1.50Beta7
#
DISCID=6a113a09
DTITLE=Various Artist - Blue Note Hits!
DYEAR=1900
DGENRE=Jazz
TTITLE0=Cool Struttin'/sonny Clark
TTITLE1=Moanin'/art Blakey
TTITLE2=Cleopatra's Dream/Bud Powell
TTITLE3=The Sidewinder/Lee Morgan
TTITLE4=Maiden Voyage/Herbie Hancock
TTITLE5=Autumun Leaves/Cannonball Adderley Featurring Miles Davis
TTITLE6=Alligator Bogaloo/Lou Donaldson
TTITLE7=Blue Train/John Coltrane
TTITLE8='Round Midnihgt/Thelonious Monk
EXTD=
EXTT0=
EXTT1=
EXTT2=
EXTT3=
EXTT4=
EXTT5=
EXTT6=
EXTT7=
EXTT8=
PLAYORDER=
